<?xml version="1.0" encoding="UTF-8" standalone="no"?>
<svg
   width="151.31981"
   height="151.32957"
   viewBox="0 0 151.32023 151.33"
   fill="none"
   version="1.1"
   id="svg19"
   sodipodi:docname="full-color-favicon.svg"
   inkscape:version="1.3 (0e150ed, 2023-07-21)"
   xmlns:inkscape="http://www.inkscape.org/namespaces/inkscape"
   xmlns:sodipodi="http://sodipodi.sourceforge.net/DTD/sodipodi-0.dtd"
   xmlns="http://www.w3.org/2000/svg"
   xmlns:svg="http://www.w3.org/2000/svg">
  <defs
     id="defs19" />
  <sodipodi:namedview
     id="namedview19"
     pagecolor="#ffffff"
     bordercolor="#000000"
     borderopacity="0.25"
     inkscape:showpageshadow="2"
     inkscape:pageopacity="0.0"
     inkscape:pagecheckerboard="0"
     inkscape:deskcolor="#d1d1d1"
     inkscape:zoom="0.56462585"
     inkscape:cx="126.63253"
     inkscape:cy="76.156627"
     inkscape:window-width="1304"
     inkscape:window-height="763"
     inkscape:window-x="1169"
     inkscape:window-y="551"
     inkscape:window-maximized="0"
     inkscape:current-layer="svg19" />
  <path
     d="m 75.8,95.27997 c -0.05,0 -0.1,-0.01 -0.15,-0.01 -0.04,0 -0.08,0.01 -0.12,0.01 -14.76,0 -27.75,-8.93 -35.26,-22.4 v 31.5896 h 70.7798 v -31.5896 c -7.5,13.47 -20.4998,22.4 -35.2598,22.4 z"
     fill="#0084ff"
     id="path11" />
  <path
     d="m 33.48,72.86997 c -6.77,12.15 -18.01,20.59 -30.98,22.13 0.86,3.2496 1.93,6.4096 3.19,9.4696 h 27.79 z"
     fill="#0084ff"
     id="path12" />
  <path
     d="m 117.8398,72.87997 v 31.5896 h 27.79 c 1.26,-3.06 2.33,-6.22 3.19,-9.4596 -12.97,-1.54 -24.21,-9.97 -30.98,-22.13 z"
     fill="#0084ff"
     id="path13" />
  <path
     d="m 33.48,46.16997 c 0,-1.87 1.52,-3.39 3.39,-3.39 1.87,0 3.39,1.52 3.39,3.39 0,23.33 15.82,42.32 35.26,42.32 0.05,0 0.1,0.01 0.15,0.01 0.04,0 0.08,-0.01 0.12,-0.01 19.4398,0 35.2598,-18.98 35.2598,-42.32 0,-1.87 1.52,-3.39 3.39,-3.39 1.87,0 3.39,1.52 3.39,3.39 0,22.18 14.29,40.42 32.41,42.17 0.7,-4.13 1.08,-8.36 1.08,-12.68 C 151.3298,33.86997 117.4498,0 75.66,0 33.87,0 0,33.86997 0,75.65997 c 0,4.32 0.38,8.55 1.08,12.68 18.11,-1.75 32.41,-19.99 32.41,-42.17 z"
     fill="#0084ff"
     id="path14" />
  <path
     d="m 117.8398,111.24957 v 27.23 c 10.27,-6.91 18.74,-16.26 24.6,-27.23 z"
     fill="#0084ff"
     id="path15" />
  <path
     d="M 111.0598,111.24957 H 40.27 v 31.29 c 10.56,5.6 22.6,8.79 35.39,8.79 12.79,0 24.8298,-3.19 35.3898,-8.79 v -31.29 z"
     fill="#0084ff"
     id="path16" />
  <path
     d="M 33.48,111.24957 H 8.88 c 5.86,10.97 14.33,20.33 24.6,27.23 z"
     fill="#0084ff"
     id="path17" />
  <path
     d="m 59.24,40.18997 c 10.19,2.89 12.33,5.04 15.23,15.23 0.15,0.54 0.64,0.91 1.2,0.91 0.56,0 1.05,-0.37 1.2,-0.91 2.89,-10.19 5.04,-12.33 15.23,-15.23 0.54,-0.15 0.9098,-0.64 0.9098,-1.2 0,-0.56 -0.3698,-1.05 -0.9098,-1.2 -10.19,-2.89 -12.33,-5.04 -15.23,-15.23 -0.15,-0.54 -0.64,-0.91 -1.2,-0.91 -0.56,0 -1.05,0.37 -1.2,0.91 -2.89,10.19 -5.04,12.33 -15.23,15.23 -0.54,0.15 -0.91,0.64 -0.91,1.2 0,0.56 0.37,1.05 0.91,1.2 z"
     fill="#ffdb00"
     id="path18" />
  <path
     d="m 117.8498,104.45957 v -31.5896 c 6.77,12.15 18.01,20.58 30.98,22.13 0.57,-2.18 1.05,-4.4 1.43,-6.66 -18.11,-1.75 -32.41,-19.99 -32.41,-42.17 0,-1.87 -1.52,-3.39 -3.39,-3.39 -1.87,0 -3.39,1.52 -3.39,3.39 0,23.33 -15.82,42.32 -35.2598,42.32 -0.04,0 -0.08,0.01 -0.12,0.01 -0.05,0 -0.1,-0.01 -0.15,-0.01 -19.44,0 -35.26,-18.98 -35.26,-42.32 0,-1.87 -1.52,-3.39 -3.39,-3.39 -1.87,0 -3.39,1.52 -3.39,3.39 0,22.18 -14.29,40.42 -32.41,42.17 0.38,2.25 0.85,4.48 1.43,6.66 12.97,-1.54 24.21,-9.97 30.98,-22.13 v 31.5896 H 5.69 c 0.96,2.32 2.02,4.59 3.2,6.79 h 24.6 v 27.23 c 2.18,1.47 4.45,2.82 6.79,4.05 v -31.29 h 70.7798 v 31.29 c 2.34,-1.24 4.6,-2.59 6.79,-4.05 v -27.23 h 24.6 c 1.17,-2.2 2.24,-4.46 3.2,-6.79 z m -6.79,0 H 40.27 v -31.5896 c 7.5,13.47 20.5,22.4 35.26,22.4 0.04,0 0.08,-0.01 0.12,-0.01 0.05,0 0.1,0.01 0.15,0.01 14.76,0 27.7498,-8.93 35.2598,-22.4 z"
     fill="#141430"
     id="path19" />
</svg>
