<svg width="735" height="159" viewBox="0 0 735 159" fill="none" xmlns="http://www.w3.org/2000/svg">
<path d="M219.02 42.9304L243.86 103.61H244.74L269.58 42.9304H280.53V116.08H271.84V60.5104H271.15L248.12 116.08H240.17L217.44 60.5104H216.75V116.08H208.4V42.9304H219.02Z" fill="white"/>
<path d="M314.61 117.26C309.67 117.26 305.33 116.08 301.6 113.73C297.87 111.37 294.96 108.07 292.89 103.81C290.81 99.5604 289.77 94.6104 289.77 88.9804C289.77 83.3504 290.81 78.2504 292.89 73.9804C294.97 69.7104 297.87 66.3904 301.6 64.0404C305.33 61.6804 309.67 60.5104 314.61 60.5104C319.55 60.5104 323.94 61.6904 327.67 64.0404C331.4 66.4004 334.31 69.7104 336.41 73.9804C338.5 78.2504 339.55 83.2504 339.55 88.9804C339.55 94.7104 338.5 99.5504 336.41 103.81C334.31 108.07 331.4 111.37 327.67 113.73C323.94 116.09 319.59 117.26 314.61 117.26ZM314.61 109.7C318.41 109.7 321.52 108.74 323.94 106.8C326.36 104.87 328.16 102.32 329.34 99.1704C330.52 96.0104 331.11 92.6204 331.11 88.9804C331.11 85.3404 330.52 81.8504 329.34 78.6704C328.16 75.5004 326.36 72.9304 323.94 70.9904C321.52 69.0404 318.41 68.0704 314.61 68.0704C310.81 68.0704 307.8 69.0404 305.38 70.9904C302.96 72.9404 301.16 75.5004 299.98 78.6704C298.8 81.8504 298.21 85.2804 298.21 88.9804C298.21 92.6804 298.8 96.0104 299.98 99.1704C301.16 102.33 302.96 104.87 305.38 106.8C307.8 108.73 310.88 109.7 314.61 109.7Z" fill="white"/>
<path d="M356.05 83.0904V116.08H347.7V61.1904H355.75V69.8304H356.54C357.82 67.0204 359.76 64.7604 362.38 63.0504C365 61.3504 368.39 60.5004 372.54 60.5004C376.24 60.5004 379.48 61.2504 382.26 62.7604C385.04 64.2704 387.21 66.5504 388.77 69.6104C390.32 72.6704 391.1 76.5404 391.1 81.2204V116.08H382.75V81.8104C382.75 77.5204 381.62 74.1604 379.36 71.7204C377.1 69.2804 374.02 68.0604 370.13 68.0604C367.45 68.0604 365.04 68.6504 362.91 69.8304C360.78 71.0104 359.11 72.7104 357.88 74.9404C356.65 77.1704 356.04 79.8804 356.04 83.0904H356.05Z" fill="white"/>
<path d="M424.97 108.23C424.25 108.36 423.59 108.46 422.98 108.52C422.37 108.59 421.79 108.62 421.24 108.62C418.69 108.62 416.82 107.96 415.64 106.63C414.46 105.3 413.87 103.22 413.87 100.37V68.3604H425.65V61.1904H413.87V48.1304H405.52V61.1904H397.27V68.3604H405.52V102.63C405.52 106.82 406.9 110.22 409.67 112.84C412.44 115.46 416.03 116.77 420.45 116.77C421.6 116.77 422.73 116.68 423.86 116.5C424.99 116.32 425.95 116.08 426.73 115.79L424.96 108.23H424.97Z" fill="white"/>
<path d="M439.11 136.6C437.67 136.63 436.39 136.53 435.28 136.31C434.17 136.08 433.38 135.85 432.92 135.62L435.08 128.26L435.91 128.46C438.72 129.11 441.09 128.98 443 128.04C444.91 127.11 446.59 124.66 448.03 120.7L449.6 116.38L429.37 61.2004H438.5L453.62 104.99H454.21L469.33 61.2004H478.46L455.19 124.04C454.14 126.89 452.85 129.24 451.31 131.11C449.77 132.98 447.99 134.36 445.96 135.26C443.93 136.16 441.64 136.61 439.09 136.61L439.11 136.6Z" fill="white"/>
<path d="M515.5 117.07C509.28 117.07 503.73 115.55 498.86 112.5C493.98 109.46 490.15 105.13 487.37 99.5104C484.59 93.9004 483.2 87.2404 483.2 79.5504C483.2 71.8604 484.59 65.1504 487.37 59.5204C490.15 53.8904 493.98 49.5504 498.86 46.5104C503.74 43.4704 509.28 41.9404 515.5 41.9404C519.17 41.9404 522.63 42.4804 525.88 43.5604C529.14 44.6404 532.07 46.2004 534.69 48.2504C537.31 50.3004 539.49 52.8004 541.24 55.7604C542.99 58.7204 544.19 62.0704 544.85 65.8004H536.01C535.49 63.2504 534.58 61.0104 533.29 59.0704C532 57.1404 530.43 55.5104 528.58 54.1904C526.73 52.8604 524.69 51.8704 522.47 51.2004C520.24 50.5304 517.92 50.1904 515.5 50.1904C511.08 50.1904 507.07 51.3104 503.47 53.5504C499.87 55.7904 497.01 59.1004 494.9 63.4704C492.79 67.8404 491.73 73.2004 491.73 79.5504C491.73 85.9004 492.79 91.2004 494.9 95.5504C497.01 99.9004 499.87 103.2 503.47 105.44C507.07 107.68 511.08 108.8 515.5 108.8C517.92 108.8 520.25 108.46 522.47 107.79C524.7 107.12 526.73 106.12 528.58 104.8C530.43 103.47 532 101.85 533.29 99.9204C534.58 97.9904 535.49 95.7504 536.01 93.1904H544.85C544.19 96.9504 542.99 100.31 541.24 103.25C539.49 106.2 537.3 108.69 534.69 110.74C532.07 112.79 529.13 114.35 525.88 115.43C522.62 116.51 519.16 117.05 515.5 117.05V117.07Z" fill="white"/>
<path d="M561.75 42.9304V116.08H553.4V42.9304H561.75Z" fill="white"/>
<path d="M594.74 117.26C589.8 117.26 585.46 116.08 581.73 113.73C578 111.37 575.09 108.07 573.02 103.81C570.94 99.5604 569.9 94.6104 569.9 88.9804C569.9 83.3504 570.94 78.2504 573.02 73.9804C575.1 69.7104 578 66.3904 581.73 64.0404C585.46 61.6804 589.8 60.5104 594.74 60.5104C599.68 60.5104 604.07 61.6904 607.8 64.0404C611.53 66.4004 614.44 69.7104 616.54 73.9804C618.63 78.2504 619.68 83.2504 619.68 88.9804C619.68 94.7104 618.63 99.5504 616.54 103.81C614.44 108.07 611.53 111.37 607.8 113.73C604.07 116.09 599.72 117.26 594.74 117.26ZM594.74 109.7C598.54 109.7 601.65 108.74 604.07 106.8C606.49 104.87 608.29 102.32 609.47 99.1704C610.65 96.0104 611.24 92.6204 611.24 88.9804C611.24 85.3404 610.65 81.8504 609.47 78.6704C608.29 75.5004 606.49 72.9304 604.07 70.9904C601.65 69.0404 598.54 68.0704 594.74 68.0704C590.94 68.0704 587.93 69.0404 585.51 70.9904C583.09 72.9404 581.29 75.5004 580.11 78.6704C578.93 81.8504 578.34 85.2804 578.34 88.9804C578.34 92.6804 578.93 96.0104 580.11 99.1704C581.29 102.33 583.09 104.87 585.51 106.8C587.93 108.73 591.01 109.7 594.74 109.7Z" fill="white"/>
<path d="M662.4 93.7004V61.2004H670.75V116.09H662.4V106.76H661.81C660.5 109.54 658.5 111.91 655.8 113.88C653.1 115.84 649.67 116.81 645.51 116.78C642.07 116.78 639.03 116.04 636.38 114.55C633.73 113.06 631.64 110.78 630.12 107.7C628.6 104.62 627.84 100.75 627.84 96.0604V61.2004H636.19V95.5704C636.19 99.5304 637.33 102.71 639.6 105.09C641.87 107.48 644.76 108.66 648.27 108.62C650.36 108.62 652.5 108.09 654.68 107.02C656.86 105.96 658.69 104.32 660.18 102.11C661.67 99.9004 662.41 97.0904 662.41 93.6904L662.4 93.7004Z" fill="white"/>
<path d="M702.16 117.26C697.58 117.26 693.54 116.1 690.03 113.77C686.53 111.45 683.79 108.15 681.83 103.88C679.87 99.6104 678.88 94.5804 678.88 88.7804C678.88 82.9804 679.87 78.0204 681.85 73.7804C683.83 69.5404 686.57 66.2704 690.07 63.9604C693.57 61.6504 697.63 60.5004 702.25 60.5004C705.85 60.5004 708.69 61.0904 710.77 62.2704C712.85 63.4504 714.44 64.7804 715.56 66.2704C716.67 67.7604 717.54 68.9804 718.16 69.9304H718.85V42.9304H727.2V116.08H719.15V107.64H718.17C717.55 108.62 716.66 109.87 715.52 111.4C714.37 112.92 712.75 114.28 710.64 115.47C708.53 116.66 705.71 117.26 702.17 117.26H702.16ZM703.24 109.7C706.64 109.7 709.51 108.81 711.83 107.02C714.15 105.24 715.92 102.77 717.13 99.6104C718.34 96.4504 718.95 92.8104 718.95 88.6904C718.95 84.5704 718.36 80.9604 717.18 77.8604C716 74.7704 714.24 72.3604 711.9 70.6404C709.56 68.9204 706.67 68.0604 703.23 68.0604C699.79 68.0604 696.75 68.9804 694.39 70.8104C692.03 72.6404 690.27 75.1104 689.09 78.2204C687.91 81.3304 687.32 84.8204 687.32 88.6804C687.32 92.5404 687.92 96.1104 689.11 99.2804C690.3 102.46 692.08 104.98 694.44 106.87C696.8 108.75 699.73 109.69 703.23 109.69L703.24 109.7Z" fill="white"/>
<path d="M83.0002 99.2204C82.9502 99.2204 82.9002 99.2104 82.8502 99.2104C82.8102 99.2104 82.7702 99.2204 82.7302 99.2204C67.9702 99.2204 54.9802 90.2904 47.4702 76.8204V108.41H118.25V76.8204C110.75 90.2904 97.7502 99.2204 82.9902 99.2204H83.0002Z" fill="#0084FF"/>
<path d="M40.6802 76.8104C33.9102 88.9604 22.6702 97.4004 9.7002 98.9404C10.5602 102.19 11.6302 105.35 12.8902 108.41H40.6802V76.8104Z" fill="#0084FF"/>
<path d="M125.04 76.8204V108.41H152.83C154.09 105.35 155.16 102.19 156.02 98.9504C143.05 97.4104 131.81 88.9804 125.04 76.8204Z" fill="#0084FF"/>
<path d="M40.6802 50.1104C40.6802 48.2404 42.2002 46.7204 44.0702 46.7204C45.9402 46.7204 47.4602 48.2404 47.4602 50.1104C47.4602 73.4404 63.2802 92.4304 82.7202 92.4304C82.7702 92.4304 82.8202 92.4404 82.8702 92.4404C82.9102 92.4404 82.9502 92.4304 82.9902 92.4304C102.43 92.4304 118.25 73.4504 118.25 50.1104C118.25 48.2404 119.77 46.7204 121.64 46.7204C123.51 46.7204 125.03 48.2404 125.03 50.1104C125.03 72.2904 139.32 90.5304 157.44 92.2804C158.14 88.1504 158.52 83.9204 158.52 79.6004C158.53 37.8104 124.65 3.94043 82.8602 3.94043C41.0702 3.94043 7.2002 37.8104 7.2002 79.6004C7.2002 83.9204 7.5802 88.1504 8.2802 92.2804C26.3902 90.5304 40.6902 72.2904 40.6902 50.1104H40.6802Z" fill="#0084FF"/>
<path d="M125.04 115.19V142.42C135.31 135.51 143.78 126.16 149.64 115.19H125.04Z" fill="#0084FF"/>
<path d="M118.26 115.19H47.4702V146.48C58.0302 152.08 70.0702 155.27 82.8602 155.27C95.6502 155.27 107.69 152.08 118.25 146.48V115.19H118.26Z" fill="#0084FF"/>
<path d="M40.6802 115.19H16.0802C21.9402 126.16 30.4102 135.52 40.6802 142.42V115.19Z" fill="#0084FF"/>
<path d="M66.4402 44.1304C76.6302 47.0204 78.7702 49.1704 81.6702 59.3604C81.8202 59.9004 82.3102 60.2704 82.8702 60.2704C83.4302 60.2704 83.9202 59.9004 84.0702 59.3604C86.9602 49.1704 89.1102 47.0304 99.3002 44.1304C99.8402 43.9804 100.21 43.4904 100.21 42.9304C100.21 42.3704 99.8402 41.8804 99.3002 41.7304C89.1102 38.8404 86.9702 36.6904 84.0702 26.5004C83.9202 25.9604 83.4302 25.5904 82.8702 25.5904C82.3102 25.5904 81.8202 25.9604 81.6702 26.5004C78.7802 36.6904 76.6302 38.8304 66.4402 41.7304C65.9002 41.8804 65.5302 42.3704 65.5302 42.9304C65.5302 43.4904 65.9002 43.9804 66.4402 44.1304Z" fill="#FFDB00"/>
<path d="M125.05 108.4V76.8104C131.82 88.9604 143.06 97.3904 156.03 98.9404C156.6 96.7604 157.08 94.5404 157.46 92.2804C139.35 90.5304 125.05 72.2904 125.05 50.1104C125.05 48.2404 123.53 46.7204 121.66 46.7204C119.79 46.7204 118.27 48.2404 118.27 50.1104C118.27 73.4404 102.45 92.4304 83.0102 92.4304C82.9702 92.4304 82.9302 92.4404 82.8902 92.4404C82.8402 92.4404 82.7902 92.4304 82.7402 92.4304C63.3002 92.4304 47.4802 73.4504 47.4802 50.1104C47.4802 48.2404 45.9602 46.7204 44.0902 46.7204C42.2202 46.7204 40.7002 48.2404 40.7002 50.1104C40.7002 72.2904 26.4102 90.5304 8.2902 92.2804C8.6702 94.5304 9.1402 96.7604 9.7202 98.9404C22.6902 97.4004 33.9302 88.9704 40.7002 76.8104V108.4H12.8902C13.8502 110.72 14.9102 112.99 16.0902 115.19H40.6902V142.42C42.8702 143.89 45.1402 145.24 47.4802 146.47V115.18H118.26V146.47C120.6 145.23 122.86 143.88 125.05 142.42V115.19H149.65C150.82 112.99 151.89 110.73 152.85 108.4H125.05ZM118.26 108.4H47.4702V76.8104C54.9702 90.2804 67.9702 99.2104 82.7302 99.2104C82.7702 99.2104 82.8102 99.2004 82.8502 99.2004C82.9002 99.2004 82.9502 99.2104 83.0002 99.2104C97.7602 99.2104 110.75 90.2804 118.26 76.8104V108.4Z" fill="#141430"/>
</svg>
